<svg width="33" height="33" viewBox="0 0 33 33" fill="none" xmlns="http://www.w3.org/2000/svg">
<g clip-path="url(#clip0_4_130)">
<path d="M21.6593 14.3087C21.6593 15.6931 21.2488 17.0465 20.4796 18.1976C19.7105 19.3488 18.6172 20.246 17.3381 20.7758C16.059 21.3056 14.6516 21.4443 13.2937 21.1742C11.9358 20.9041 10.6886 20.2374 9.70959 19.2584C8.73063 18.2794 8.06394 17.0322 7.79384 15.6743C7.52375 14.3164 7.66237 12.909 8.19218 11.6299C8.722 10.3508 9.6192 9.25754 10.7703 8.48837C11.9215 7.7192 13.2749 7.30866 14.6593 7.30866C16.5159 7.30866 18.2963 8.04615 19.6091 9.35891C20.9218 10.6717 21.6593 12.4521 21.6593 14.3087ZM29.3668 29.0162C29.274 29.1091 29.1637 29.1829 29.0423 29.2332C28.9209 29.2835 28.7908 29.3094 28.6593 29.3094C28.5279 29.3094 28.3978 29.2835 28.2764 29.2332C28.155 29.1829 28.0447 29.1091 27.9518 29.0162L21.6943 22.7574C19.5182 24.5678 16.728 25.4696 13.9039 25.2752C11.0799 25.0808 8.43949 23.8052 6.53195 21.7137C4.62442 19.6222 3.59659 16.8759 3.66227 14.0459C3.72794 11.216 4.88206 8.52028 6.88457 6.51954C8.88707 4.5188 11.5838 3.36706 14.4138 3.30389C17.2438 3.24072 19.9893 4.27097 22.0791 6.18035C24.1688 8.08973 25.4421 10.7313 25.634 13.5555C25.8259 16.3797 24.9216 19.1691 23.1093 21.3437L29.3668 27.6012C29.4598 27.694 29.5336 27.8043 29.5839 27.9257C29.6342 28.0471 29.6601 28.1772 29.6601 28.3087C29.6601 28.4401 29.6342 28.5702 29.5839 28.6916C29.5336 28.813 29.4598 28.9233 29.3668 29.0162ZM14.6593 23.3087C16.4394 23.3087 18.1794 22.7808 19.6595 21.7919C21.1395 20.803 22.2931 19.3973 22.9743 17.7528C23.6554 16.1083 23.8337 14.2987 23.4864 12.5528C23.1391 10.807 22.282 9.20337 21.0233 7.9447C19.7646 6.68602 18.161 5.82886 16.4152 5.48159C14.6693 5.13432 12.8597 5.31255 11.2152 5.99374C9.57065 6.67493 8.16505 7.82848 7.17611 9.30852C6.18718 10.7886 5.65934 12.5286 5.65934 14.3087C5.66199 16.6948 6.61105 18.9824 8.2983 20.6697C9.98556 22.3569 12.2732 23.306 14.6593 23.3087Z" fill="#F78018"/>
</g>
<defs>
<clipPath id="clip0_4_130">
<rect width="32" height="32" fill="white" transform="translate(0.659363 0.308655)"/>
</clipPath>
</defs>
</svg>
