<svg width="32" height="32" viewBox="0 0 32 32" fill="none" xmlns="http://www.w3.org/2000/svg">
<g clip-path="url(#clip0_12_328)">
<path d="M14.97 27.2425C14.9159 27.4588 14.7911 27.6509 14.6154 27.7881C14.4396 27.9254 14.223 28 14 28C13.9158 28.0004 13.8318 27.9903 13.75 27.97L9.75002 26.97C9.63866 26.942 9.53295 26.8951 9.43752 26.8312L6.43752 24.8312C6.21689 24.684 6.06377 24.4552 6.01185 24.1951C5.95992 23.9351 6.01345 23.665 6.16064 23.4444C6.30784 23.2237 6.53665 23.0706 6.79674 23.0187C7.05683 22.9668 7.32689 23.0203 7.54752 23.1675L10.4025 25.0712L14.235 26.03C14.3631 26.061 14.4837 26.1171 14.59 26.1949C14.6964 26.2727 14.7863 26.3708 14.8546 26.4835C14.9229 26.5961 14.9682 26.7212 14.988 26.8514C15.0078 26.9817 15.0017 27.1146 14.97 27.2425ZM31.5563 15.185C31.4742 15.4342 31.3436 15.6647 31.172 15.8632C31.0003 16.0616 30.7911 16.2241 30.5563 16.3412L27.5963 17.8212L25.7113 19.7075L20.7113 24.7075C20.5891 24.8296 20.4373 24.9179 20.2709 24.9639C20.1044 25.0099 19.9288 25.012 19.7613 24.97L11.7613 22.97C11.6396 22.9394 11.5247 22.8865 11.4225 22.8137L4.48252 17.8587L1.44752 16.3412C0.973187 16.1041 0.612444 15.6883 0.444609 15.1853C0.276774 14.6823 0.315588 14.1332 0.552517 13.6587L3.65877 7.44749C3.89588 6.97316 4.31167 6.61241 4.81471 6.44458C5.31774 6.27674 5.86684 6.31556 6.34127 6.55249L9.09877 7.92749L15.7238 6.03499C15.9035 5.98358 16.094 5.98358 16.2738 6.03499L22.8988 7.92749L25.6563 6.55249C26.1307 6.31556 26.6798 6.27674 27.1828 6.44458C27.6859 6.61241 28.1017 6.97316 28.3388 7.44749L31.445 13.6587C31.5635 13.8932 31.6343 14.1488 31.6534 14.4107C31.6725 14.6727 31.6395 14.9359 31.5563 15.185ZM23.5 19.0825L20.0363 16.3087C17.5938 18.3087 14.4925 18.5725 11.9225 16.9337C11.6697 16.7729 11.4563 16.5574 11.298 16.303C11.1396 16.0486 11.0405 15.7619 11.0079 15.4641C10.9752 15.1663 11.0099 14.8649 11.1094 14.5823C11.2088 14.2996 11.3705 14.043 11.5825 13.8312C11.5855 13.8276 11.5889 13.8242 11.5925 13.8212L17.2 8.38249L16 8.03999L9.69752 9.84124L6.27627 16.6825L12.4263 21.0762L19.6938 22.8925L23.5 19.0825ZM25.78 16.8025L22.3825 9.99999H18.405L13 15.25C14.5825 16.2612 17.0638 16.54 19.29 14.2962C19.4639 14.121 19.6964 14.0162 19.9429 14.0022C20.1894 13.9881 20.4323 14.0657 20.625 14.22L24.9263 17.6662L25.78 16.8025Z" fill="#F78018"/>
</g>
<defs>
<clipPath id="clip0_12_328">
<rect width="32" height="32" fill="white"/>
</clipPath>
</defs>
</svg>
