<svg width="33" height="33" viewBox="0 0 33 33" fill="none" xmlns="http://www.w3.org/2000/svg">
<g clip-path="url(#clip0_5_139)">
<path d="M4.65936 8.30865C4.65936 8.04344 4.76472 7.78908 4.95226 7.60155C5.13979 7.41401 5.39415 7.30865 5.65936 7.30865H27.6594C27.9246 7.30865 28.1789 7.41401 28.3665 7.60155C28.554 7.78908 28.6594 8.04344 28.6594 8.30865C28.6594 8.57387 28.554 8.82823 28.3665 9.01576C28.1789 9.2033 27.9246 9.30865 27.6594 9.30865H5.65936C5.39415 9.30865 5.13979 9.2033 4.95226 9.01576C4.76472 8.82823 4.65936 8.57387 4.65936 8.30865ZM5.65936 17.3087H14.6594C14.9246 17.3087 15.1789 17.2033 15.3665 17.0158C15.554 16.8282 15.6594 16.5739 15.6594 16.3087C15.6594 16.0434 15.554 15.7891 15.3665 15.6015C15.1789 15.414 14.9246 15.3087 14.6594 15.3087H5.65936C5.39415 15.3087 5.13979 15.414 4.95226 15.6015C4.76472 15.7891 4.65936 16.0434 4.65936 16.3087C4.65936 16.5739 4.76472 16.8282 4.95226 17.0158C5.13979 17.2033 5.39415 17.3087 5.65936 17.3087ZM16.6594 23.3087H5.65936C5.39415 23.3087 5.13979 23.414 4.95226 23.6015C4.76472 23.7891 4.65936 24.0434 4.65936 24.3087C4.65936 24.5739 4.76472 24.8282 4.95226 25.0158C5.13979 25.2033 5.39415 25.3087 5.65936 25.3087H16.6594C16.9246 25.3087 17.1789 25.2033 17.3665 25.0158C17.554 24.8282 17.6594 24.5739 17.6594 24.3087C17.6594 24.0434 17.554 23.7891 17.3665 23.6015C17.1789 23.414 16.9246 23.3087 16.6594 23.3087ZM30.3669 23.6012L27.8294 21.0587C28.5115 20.0247 28.7856 18.7743 28.5985 17.5498C28.4113 16.3253 27.7763 15.2139 26.8165 14.4308C25.8567 13.6478 24.6404 13.2489 23.4032 13.3115C22.1661 13.3741 20.9962 13.8937 20.1203 14.7696C19.2444 15.6455 18.7248 16.8154 18.6622 18.0525C18.5997 19.2896 18.9985 20.506 19.7815 21.4658C20.5646 22.4256 21.676 23.0606 22.9005 23.2478C24.125 23.4349 25.3754 23.1608 26.4094 22.4787L28.9469 25.0162C29.1345 25.2038 29.389 25.3092 29.6544 25.3092C29.9197 25.3092 30.1742 25.2038 30.3619 25.0162C30.5495 24.8285 30.6549 24.574 30.6549 24.3087C30.6549 24.0433 30.5495 23.7888 30.3619 23.6012H30.3669Z" fill="#F78018"/>
</g>
<defs>
<clipPath id="clip0_5_139">
<rect width="32" height="32" fill="white" transform="translate(0.659363 0.308655)"/>
</clipPath>
</defs>
</svg>
