<svg width="268" height="70" viewBox="0 0 268 70" fill="none" xmlns="http://www.w3.org/2000/svg">
<path d="M16.3599 9.16066C12.5009 10.1287 9.19291 11.6477 6.37991 13.3907C6.35691 13.4017 6.33491 13.4127 6.31291 13.4357C6.30191 13.4467 6.30191 13.4467 6.30191 13.4577C5.24391 15.1117 -6.35608 34.6437 26.1939 39.1667C27.5439 39.3577 28.8609 39.4367 30.1429 39.4367C45.1629 39.4027 55.7729 27.0037 61.3759 19.2297C44.2519 9.30666 29.1639 5.93166 16.3599 9.16066Z" fill="#F1690E"/>
<path d="M62.2309 11.6477C40.0549 -5.93831 23.1889 -0.0423079 14.0419 6.30369C14.5369 6.14569 15.0319 6.01171 15.5379 5.88771C29.2649 2.42271 45.2749 5.96669 63.2769 16.4417C64.0989 14.8207 63.6829 12.8057 62.2309 11.6477Z" fill="#F78018"/>
<path d="M27.7009 64.6627C18.4299 62.2217 10.3399 56.9777 3.47693 48.9787C8.87793 60.2637 20.0949 68.3197 33.1239 69.2087C40.2569 69.6927 46.9739 68.0837 52.7349 64.9217C48.7299 65.7547 44.5549 66.2497 40.3139 66.2497C36.1509 66.2497 31.9209 65.7767 27.7009 64.6627Z" fill="#F1690E"/>
<path d="M66.7659 31.6967C60.3299 37.5477 51.4419 41.1707 41.6309 41.1707C37.6139 41.1707 33.7439 40.5627 30.1429 39.4377C17.6649 35.5787 8.30391 25.5757 6.37991 13.3907C6.36891 13.3797 6.36891 13.3567 6.36891 13.3457C6.34591 13.3797 6.32391 13.4017 6.31291 13.4357C6.30191 13.4467 6.30191 13.4467 6.30191 13.4577C1.85791 19.8817 -0.539081 27.8257 0.102919 36.3537C0.170919 37.2987 0.282908 38.2437 0.428908 39.1667C7.93391 50.9807 17.3509 58.4397 28.5569 61.3987C39.4709 64.2787 50.7219 62.5017 60.3869 59.2727C67.0929 52.8037 71.2559 43.7237 71.2559 33.6647V33.5967C71.2549 31.3037 68.4759 30.1557 66.7659 31.6967Z" fill="#F78018"/>
<path d="M254.184 14.7887H260.169V46.2895C260.169 47.7403 260.387 48.6652 260.822 49.0642C261.257 49.4632 261.801 49.6627 262.454 49.6627C263.179 49.6627 263.85 49.5901 264.467 49.445C265.12 49.3 265.682 49.1186 266.154 48.901L267.024 53.6343C266.154 53.997 265.12 54.3053 263.923 54.5592C262.726 54.813 261.656 54.94 260.713 54.94C258.682 54.94 257.086 54.3778 255.925 53.2534C254.765 52.0928 254.184 50.4969 254.184 48.4657V14.7887Z" fill="#100F0F"/>
<path d="M220.705 43.4604V26.0507H226.689V42.2635C226.689 44.8024 227.143 46.7248 228.049 48.0305C228.992 49.3 230.352 49.9347 232.13 49.9347C233.254 49.9347 234.342 49.6989 235.394 49.2274C236.482 48.7559 237.461 48.0668 238.332 47.16C239.239 46.217 239.964 45.0926 240.508 43.7869V26.0507H246.493V47.7585C246.493 48.4476 246.62 48.9372 246.874 49.2274C247.127 49.5176 247.545 49.6808 248.125 49.7171V54.5047C247.508 54.6136 247.001 54.6861 246.602 54.7224C246.203 54.7586 245.822 54.7768 245.459 54.7768C244.371 54.7768 243.464 54.4866 242.739 53.9063C242.013 53.2897 241.596 52.5099 241.487 51.5668L241.379 48.7378C240.109 50.8052 238.459 52.3829 236.428 53.471C234.397 54.5229 232.166 55.0488 229.736 55.0488C226.762 55.0488 224.513 54.0695 222.99 52.1109C221.466 50.1523 220.705 47.2688 220.705 43.4604Z" fill="#100F0F"/>
<path d="M203.216 54.5047V31.3824H199.408V26.7579H203.216V25.6154C203.216 23.2941 203.579 21.2811 204.304 19.5764C205.066 17.8717 206.118 16.566 207.46 15.6592C208.838 14.7162 210.452 14.2447 212.302 14.2447C213.463 14.2447 214.605 14.4079 215.729 14.7343C216.854 15.0245 217.924 15.4416 218.939 15.9857L217.634 20.4469C217.09 20.0842 216.437 19.8122 215.675 19.6308C214.95 19.4132 214.242 19.3044 213.553 19.3044C212.175 19.3044 211.105 19.8303 210.343 20.8821C209.582 21.934 209.201 23.4573 209.201 25.4522V26.7579H216.491V31.3824H209.201V54.5047H203.216Z" fill="#100F0F"/>
<path d="M197.492 53.0358C196.984 53.2897 196.35 53.5617 195.588 53.8519C194.826 54.142 193.956 54.3959 192.976 54.6136C192.033 54.8312 191.054 54.94 190.039 54.94C188.805 54.94 187.663 54.7224 186.611 54.2871C185.559 53.8519 184.707 53.1627 184.054 52.2197C183.437 51.2404 183.129 49.9891 183.129 48.4657V30.6751H179.375V26.0507H183.129V16.6929H189.114V26.0507H195.316V30.6751H189.114V46.5615C189.186 47.5408 189.494 48.2662 190.039 48.7378C190.619 49.2093 191.326 49.445 192.16 49.445C192.995 49.445 193.792 49.3 194.554 49.0098C195.316 48.7196 195.878 48.4839 196.241 48.3025L197.492 53.0358Z" fill="#100F0F"/>
<path d="M165.108 55.0488C162.714 55.0488 160.447 54.668 158.307 53.9063C156.167 53.1083 154.336 51.9296 152.812 50.3699L155.043 46.3439C156.675 47.7947 158.307 48.8466 159.94 49.4994C161.608 50.1523 163.258 50.4787 164.89 50.4787C166.559 50.4787 167.919 50.1704 168.971 49.5538C170.023 48.901 170.549 47.9579 170.549 46.7248C170.549 45.818 170.277 45.147 169.733 44.7118C169.188 44.2765 168.391 43.8957 167.339 43.5692C166.323 43.2428 165.09 42.8801 163.639 42.4811C161.608 41.8645 159.903 41.2298 158.525 40.5769C157.147 39.8878 156.113 39.0536 155.424 38.0743C154.735 37.095 154.39 35.8437 154.39 34.3203C154.39 32.4705 154.862 30.8928 155.805 29.587C156.748 28.2813 158.053 27.2839 159.722 26.5947C161.427 25.9056 163.385 25.561 165.598 25.561C167.665 25.561 169.569 25.8875 171.31 26.5403C173.088 27.1569 174.647 28.1362 175.989 29.4782L173.432 33.4498C172.163 32.2892 170.857 31.4368 169.515 30.8928C168.209 30.3487 166.795 30.0767 165.271 30.0767C164.401 30.0767 163.567 30.1855 162.769 30.4031C161.971 30.5845 161.3 30.9472 160.756 31.4912C160.248 31.999 159.994 32.7244 159.994 33.6674C159.994 34.4291 160.212 35.0457 160.647 35.5172C161.082 35.9887 161.735 36.3877 162.605 36.7141C163.476 37.0406 164.546 37.4033 165.815 37.8023C168.028 38.4551 169.914 39.108 171.473 39.7609C173.033 40.3774 174.23 41.1935 175.064 42.2091C175.935 43.1884 176.37 44.5485 176.37 46.2895C176.37 49.0461 175.336 51.2041 173.269 52.7638C171.238 54.2871 168.517 55.0488 165.108 55.0488Z" fill="#100F0F"/>
<path d="M135.526 55.0488C133.314 55.0488 131.301 54.668 129.487 53.9063C127.71 53.1083 126.169 52.0384 124.863 50.6964C123.557 49.3181 122.542 47.7585 121.816 46.0175C121.127 44.2402 120.782 42.3542 120.782 40.3593C120.782 37.6753 121.399 35.2271 122.632 33.0146C123.865 30.7658 125.588 28.9704 127.801 27.6284C130.013 26.2502 132.607 25.561 135.581 25.561C138.555 25.561 141.112 26.2502 143.252 27.6284C145.428 28.9704 147.115 30.7477 148.312 32.9602C149.509 35.1727 150.107 37.5484 150.107 40.0873C150.107 40.5225 150.089 40.9396 150.053 41.3386C150.016 41.7013 149.98 42.0096 149.944 42.2635H127.148C127.257 43.9319 127.71 45.4009 128.508 46.6704C129.342 47.9035 130.394 48.8828 131.664 49.6082C132.933 50.2974 134.293 50.642 135.744 50.642C137.34 50.642 138.845 50.243 140.26 49.445C141.71 48.6471 142.69 47.5952 143.198 46.2895L148.312 47.7585C147.695 49.1367 146.752 50.3881 145.483 51.5124C144.249 52.6006 142.78 53.471 141.076 54.1239C139.371 54.7405 137.521 55.0488 135.526 55.0488ZM126.985 38.2919H144.177C144.068 36.6597 143.596 35.2271 142.762 33.9939C141.964 32.7244 140.931 31.7451 139.661 31.056C138.428 30.3306 137.05 29.9679 135.526 29.9679C134.039 29.9679 132.661 30.3306 131.392 31.056C130.158 31.7451 129.143 32.7244 128.345 33.9939C127.547 35.2271 127.093 36.6597 126.985 38.2919Z" fill="#100F0F"/>
<path d="M87.2559 49.8259L110.596 21.263H87.8V15.8768H117.832V20.5557L95.0903 49.1186H117.886V54.5047H87.2559V49.8259Z" fill="#100F0F"/>
</svg>
